<svg width="70" height="70" viewBox="0 0 70 70" fill="none" xmlns="http://www.w3.org/2000/svg">
<g id="icons8:electrical">
<path id="Vector" d="M48.125 7.86188L39.375 16.5441L34.3876 11.5522L31.2375 14.7022L32.8782 16.3428L21.6694 27.5516C20.3959 28.8321 19.681 30.5646 19.681 32.3706C19.681 34.1766 20.3959 35.9092 21.6694 37.1897L25.7032 41.2234L9.36255 57.4919L12.5125 60.6419L28.7788 44.3013L32.8125 48.3306C34.093 49.6042 35.8256 50.3191 37.6316 50.3191C39.4376 50.3191 41.1702 49.6042 42.4507 48.3306L53.6616 37.1197L55.3022 38.7603L58.4522 35.6103L53.456 30.625L62.136 21.875L59.0625 18.7994L50.3125 27.4838L42.5185 19.6875L51.2029 10.9375L48.125 7.86188ZM35.956 19.4119L50.586 34.0419L39.375 45.2572C38.5263 46.1038 36.7369 46.1038 35.8882 45.2572L24.7472 34.1141C23.8985 33.2653 23.8985 31.4759 24.7472 30.6272L35.956 19.4163V19.4119Z" fill="#418BF9"/>
</g>
</svg>
