<svg width="70" height="70" viewBox="0 0 70 70" fill="none" xmlns="http://www.w3.org/2000/svg">
<g id="system-uicons:reset-temporary">
<g id="Group">
<path id="Vector" d="M11.9266 21.6233C15.169 16.0274 20.3346 11.8005 26.4615 9.72966C32.5885 7.65885 39.2592 7.88527 45.2317 10.3668C51.2041 12.8483 56.0712 17.4157 58.9267 23.2187C61.7822 29.0216 62.4314 35.6645 60.7536 41.9105C59.0757 48.1566 55.1851 53.58 49.8062 57.1709C44.4272 60.7619 37.9266 62.2756 31.5146 61.4303C25.1026 60.5851 19.2164 57.4383 14.9518 52.5761C10.6873 47.7138 8.33509 41.4674 8.33325 35" stroke="#418BF9" stroke-width="3" stroke-linecap="round" stroke-linejoin="round"/>
<path id="Vector_2" d="M41.6666 35C41.6666 38.6819 38.6818 41.6667 34.9999 41.6667C31.318 41.6667 28.3333 38.6819 28.3333 35C28.3333 31.3181 31.318 28.3333 34.9999 28.3333C38.6818 28.3333 41.6666 31.3181 41.6666 35Z" fill="#418BF9" stroke="#418BF9" stroke-width="3" stroke-linecap="round" stroke-linejoin="round"/>
<path id="Vector_3" d="M24.9998 21.6667H11.6665V8.33333" stroke="#418BF9" stroke-width="3" stroke-linecap="round" stroke-linejoin="round"/>
</g>
</g>
</svg>
