<?xml version="1.0" encoding="utf-8"?>
<!-- Generator: Adobe Illustrator 21.1.0, SVG Export Plug-In . SVG Version: 6.00 Build 0)  -->
<svg version="1.1" id="Livello_1" xmlns="http://www.w3.org/2000/svg" xmlns:xlink="http://www.w3.org/1999/xlink" x="0px" y="0px"
	 width="305px" height="81px" viewBox="0 0 305 81" style="enable-background:new 0 0 305 81;" xml:space="preserve">
<style type="text/css">
	.st0{fill:#FFFFFF;stroke:#FFFFFF;stroke-linecap:round;stroke-linejoin:round;}
	.st1{fill:#FFFFFF;stroke:#FFFFFF;stroke-linejoin:round;}
	.st2{fill:#FFFFFF;stroke:#FFFFFF;}
	.st3{fill:#FFFFFF;stroke:#FFFFFF;stroke-width:0.75;stroke-miterlimit:10;}
	.st4{fill:#FFFFFF;}
</style>
<g>
	<polygon class="st0" points="6.5999999,0.750007 6.9000001,0.750007 25.3999996,69.6500092 25.1000004,69.7500076 	"/>
	<polygon class="st0" points="9.4000006,0.750007 9.8000002,0.750007 26.8000011,64.2500076 26.5,64.3500061 	"/>
	<polygon class="st0" points="12.3000002,0.750007 12.6000004,0.750007 28.2000008,59.0500069 27.8999996,59.1500053 	"/>
	<polygon class="st0" points="15.1000004,0.750007 15.4000006,0.750007 29.6000004,53.7500076 29.3000011,53.8500061 	"/>
	<polyline class="st0" points="36.3999977,80.3500061 36.3999977,80.3500061 57.6999969,0.650007 58,0.750007 
		36.6999969,80.4500046 36.3999977,80.4500046 29.3000011,53.8500061 29.3000011,53.8500061 29.6000004,53.7500076 
		36.6999969,80.3500061 	"/>
	<g>
		<polyline class="st0" points="25.2000008,80.3500061 46.5,0.650007 46.6999969,0.750007 25.3999996,80.4500046 
			25.2000008,80.4500046 23.7000008,75.0500031 3.8,0.750007 4,0.750007 25.3999996,80.3500061 		"/>
		<polyline class="st0" points="27.8999996,80.3500061 27.8999996,80.3500061 49.1999969,0.650007 49.5,0.750007 
			28.2000008,80.4500046 28,80.4500046 25.1000004,69.7500076 25.1000004,69.7500076 25.3000011,69.6500092 28.2000008,80.3500061 
					"/>
		<polyline class="st0" points="30.7000008,80.3500061 30.7000008,80.3500061 52.0999985,0.650007 52.3999977,0.750007 
			31,80.4500046 30.8000011,80.4500046 26.5,64.3500061 26.5,64.3500061 26.7000008,64.2500076 31,80.3500061 		"/>
		<polyline class="st0" points="33.5999985,80.3500061 33.5999985,80.3500061 54.8999977,0.650007 55.1999969,0.750007 
			33.8999977,80.4500046 33.6999969,80.4500046 28,59.1500053 28,59.1500053 28.2000008,59.1500053 33.8999977,80.3500061 		"/>
		<polyline class="st0" points="22.3000011,80.3500061 22.3000011,80.3500061 43.5999985,0.750007 43.7999992,0.750007 
			22.5,80.4500046 22.3000011,80.4500046 0.9,0.750007 0.9,0.750007 1.2,0.750007 22.5,80.3500061 		"/>
	</g>
	<polyline class="st1" points="64.9000015,80.3500061 64.9000015,80.3500061 86.1999969,0.650007 86.5,0.750007 
		65.1999969,80.4500046 64.9000015,80.4500046 50.5999985,27.1500053 50.5999985,27.1500053 50.8999977,27.0500069 
		65.1999969,80.3500061 	"/>
	<polyline class="st1" points="67.6999969,80.3500061 67.6999969,80.3500061 86.2999954,11.0500069 86.5999985,11.0500069 
		68,80.4500046 67.6999969,80.4500046 52.0999985,21.8500061 52.0999985,21.8500061 52.3999977,21.8500061 68,80.3500061 	"/>
	<polyline class="st1" points="70.5999985,80.3500061 70.5999985,80.3500061 86.1999969,21.8500061 86.5,21.9500065 
		70.9000015,80.4500046 70.5999985,80.4500046 53.5,16.5500069 53.5,16.5500069 53.7999992,16.5500069 70.9000015,80.3500061 	"/>
	<polyline class="st1" points="73.4000015,80.3500061 73.4000015,80.3500061 86.1999969,32.4500046 86.5,32.5500069 
		73.6999969,80.4500046 73.4000015,80.4500046 54.8999977,11.3500071 54.8999977,11.3500071 55.1999969,11.2500067 
		73.6999969,80.3500061 	"/>
	<polyline class="st1" points="76.1999969,80.3500061 76.1999969,80.3500061 86.1999969,43.0500069 86.5,43.1500053 
		76.5,80.4500046 76.1999969,80.4500046 56.2999992,5.950007 56.2999992,5.950007 56.5999985,5.950007 76.5,80.3500061 	"/>
	<g>
		<polygon class="st0" points="43.7999992,0.750007 50.8999977,27.0500069 50.6999969,27.0500069 43.5999985,0.750007 		"/>
		<polygon class="st0" points="46.3999977,0.650007 46.5999985,0.650007 52.2999992,21.8500061 52.0999985,21.8500061 		"/>
		<polygon class="st0" points="49.2999992,0.650007 49.5,0.650007 53.6999969,16.5500069 53.5,16.5500069 		"/>
		<polygon class="st0" points="52.0999985,0.650007 52.2999992,0.650007 55.0999985,11.2500067 54.8999977,11.3500071 		"/>
		<polygon class="st0" points="54.8999977,0.650007 55.0999985,0.650007 56.5999985,5.950007 56.3999977,5.950007 		"/>
	</g>
	<polyline class="st0" points="79.0999985,80.3500061 79.0999985,80.3500061 86.1999969,53.5500069 86.5,53.6500053 
		79.4000015,80.4500046 79.0999985,80.4500046 57.6999969,0.750007 57.6999969,0.750007 58,0.650007 79.4000015,80.3500061 	"/>
	<polygon class="st2" points="100.9000015,55.8500061 146.3000031,1.050007 146.8000031,1.050007 101.0999985,56.0500069 	"/>
	<polygon class="st2" points="100.9000015,60.2500076 149.9000092,1.250007 150.3000031,1.150007 101.0999985,60.4500046 	"/>
	<polygon class="st2" points="101.1999969,51.2500076 142.8000031,1.250007 143.1000061,1.4500071 101.0999985,51.8500061 	"/>
	<polygon class="st2" points="101.1999969,46.9500046 137.8000031,2.950007 139,1.9500071 101.0999985,47.5500069 	"/>
	<polygon class="st2" points="101.1999969,42.6500053 133,4.1500068 134.2000122,3.3500071 101.0999985,43.2500076 	"/>
	<g>
		<polygon class="st2" points="86.5,73.2500076 100.9000015,55.9500046 101.0999985,56.0500069 86.5,73.5500031 		"/>
		<polygon class="st2" points="86.5,77.6500092 100.9000015,60.2500076 101.0999985,60.3500061 86.5,77.9500046 		"/>
		<polygon class="st2" points="86.5,68.9500046 100.9000015,51.6500053 101.0999985,51.8500061 86.5,69.3500061 		"/>
		<polygon class="st2" points="86.5,64.7500076 100.9000015,47.3500061 101.0999985,47.4500046 86.5,65.0500031 		"/>
		<polygon class="st2" points="86.4000015,60.5500069 100.9000015,43.0500069 101,43.2500076 86.4000015,60.8500061 		"/>
		<polygon class="st2" points="86.2999954,56.4500046 100.9000015,38.8500061 101.0999985,38.9500046 86.4000015,56.5500069 		"/>
	</g>
	<polygon class="st2" points="101.1999969,38.4500046 126.5999985,7.8500071 127.0999985,7.7500072 101.0999985,39.0500069 	"/>
	<polygon class="st0" points="105.2999954,33.6500053 105.5,33.4500046 130.8000031,78.1500092 130.5,78.3500061 	"/>
	<polygon class="st0" points="107.0999985,31.5500069 107.2999954,31.3500061 134.2000122,78.9500046 134,79.1500092 
		107,31.4500065 	"/>
	<polygon class="st0" points="108.9000015,29.4500065 109.0999985,29.1500053 137.6000061,79.6500092 137.4000092,79.7500076 
		108.9000015,29.3500061 	"/>
	<polygon class="st0" points="110.6999969,27.2500057 111,27.0500069 140.9000092,80.0500031 140.6000061,80.1500092 	"/>
	<polygon class="st0" points="112.5,25.0500069 112.7999954,24.8500061 144.1000061,80.1500092 143.8000031,80.3500061 	"/>
	<polygon class="st0" points="114.4000015,22.8500061 114.5999985,22.5500069 147,79.9500046 146.8000031,80.1500092 	"/>
	<polygon class="st1" points="86.1999969,80.4500046 86.1999969,37.7500076 86.5,37.7500076 86.5,80.4500046 	"/>
	<g>
		<polygon class="st1" points="86.2999954,53.6500053 100.4000015,0.650007 100.5999985,0.650007 86.5,53.6500053 		"/>
		<polygon class="st1" points="86.2999954,43.0500069 97.5999985,0.650007 97.7999954,0.650007 86.5,43.1500053 		"/>
		<polygon class="st1" points="86.2999954,32.5500069 94.7999954,0.650007 95,0.650007 86.4000015,32.5500069 		"/>
		<polygon class="st1" points="86.2999954,21.8500061 91.9000015,0.650007 92.0999985,0.650007 86.5,21.9500065 		"/>
		<polygon class="st1" points="86.2999954,11.0500069 89.0999985,0.650007 89.2999954,0.650007 86.5,11.0500069 		"/>
		<polygon class="st1" points="86.1999969,37.7500076 86.1999969,0.650007 86.4000015,0.650007 86.4000015,37.7500076 		"/>
	</g>
	<polygon class="st1" points="89.0999985,80.4500046 89.0999985,0.650007 89.4000015,0.650007 89.4000015,80.4500046 	"/>
	<polygon class="st1" points="91.9000015,80.4500046 91.9000015,0.650007 92.1999969,0.650007 92.1999969,80.4500046 	"/>
	<polygon class="st1" points="94.7999954,80.4500046 94.7999954,0.650007 95.0999985,0.650007 95.0999985,80.4500046 	"/>
	<polygon class="st1" points="97.5999985,80.4500046 97.5999985,0.650007 97.9000015,0.650007 97.9000015,80.4500046 	"/>
	<polygon class="st1" points="100.4000015,80.4500046 100.4000015,0.650007 100.6999969,0.650007 100.6999969,80.4500046 	"/>
	<path class="st0" d="M171.8000031,10.0500069c-6.5-6.3000002-13.8999939-8.8999996-24.8999939-8.8999996l0,0
		C130.8000031,1.1500072,120.5,10.0500069,120.5,23.9500046l0,0c0,6.2999992,1.6999969,11.0999985,5.3000031,14.7000008l0,0
		c3.3000031,3.2000008,8.1000061,5.2000008,14.7000122,6.2000008l0,0l9.6999969,1.4000015
		c3.8999939,0.5999985,6.1000061,1.5,8,3.2000008l0,0c2,1.7999992,3,4.5999985,3,7.9000015l0,0
		c0,2.0999985-0.5,5-2.8000031,7.3999977l0,0c-2.3000031,2.4000015-6.1999969,4.0999985-13.1000061,4.0999985l0,0l0,0l0,0
		c-8.3999939,0-14.8000031-2.0999985-19.6000061-6.2999992l0,0c0,0-7.0999985-5.5-8.6999969-8.2999992l0,0l0.3000031-0.0999985
		C118.9000015,56.8500099,126,62.3500099,126,62.3500099l0,0c4.7000122,4.2000008,11.1000061,6.2999992,19.4000092,6.2999992l0,0
		c13.6000061,0,15.5-7,15.5-11.2000008l0,0c0-3.2999992-1-6-2.8999939-7.7000008l0,0
		c-1.8999939-1.7000008-3.8999939-2.5999985-7.8000031-3.2000008l0,0l-9.6999969-1.4000015
		c-6.6000061-1-11.5-3-14.9000092-6.2999992l0,0c-3.5999985-3.5999985-5.4000015-8.5-5.4000015-14.8999996l0,0
		c0-7,2.5999985-12.7999992,7.3000031-16.7999992l0,0c4.7000046-4,11.3000107-6.3000002,19.5000076-6.3000002l0,0
		c11,0,18.6000061,2.7,25.1000061,9l0,0"/>
	<path class="st0" d="M169.8000031,12.1500072c-5.8999939-5.6999998-12.6999969-8.1000004-22.8999939-8.1000004l0,0
		c-14.3000031,0-23.5000076,7.8000002-23.6000061,19.8999977l0,0c0,5.5,1.5,9.7000008,4.5,12.7000008l0,0
		c2.8000031,2.7000008,7.1000061,4.5,13.1000061,5.4000015l0,0l9.6999969,1.2999992c4.6000061,0.7000008,7.1999969,1.7999992,9.5,4
		l0,0C162.7000122,49.7500076,164,53.2500076,164,57.4500046l0,0c0,1.7000008-0.3000031,5.2999992-2.8999939,8.5l0,0
		c-2.5,3.1999969-7.1999969,5.9000015-15.8999939,5.9000015l0,0l0,0l0,0c-9.8000031,0-17.1999969-2.5999985-22.6000061-8.0999985
		l0,0c0,0-0.3000031-0.2999992-0.5999985-0.5999985l0,0c-0.3000031-0.2999992-0.5999985-0.5-0.5999985-0.7999992l0,0h0.3000031l0,0
		l0.0999985,0.0999985l0,0c0.0999985,0.0999985,0.1999969,0.2999992,0.4000015,0.4000015l0,0
		c0.3000031,0.2999992,0.5999985,0.5999985,0.5999985,0.5999985l0,0c5.4000015,5.3999977,12.7000046,8.0000038,22.4000015,8.0000038
		l0,0c17.1000061,0,18.3999939-10.7999992,18.3999939-14.0999985l0,0c0-4.0999985-1.3000031-7.5-3.8000031-9.7999992l0,0
		C157.5,45.3500137,155,44.3500137,150.4000092,43.650013l0,0l-9.6999969-1.4000015
		c-6-0.9000015-10.3000031-2.7000008-13.3000107-5.5l0,0c-3.0999985-3.0999985-4.5-7.2999992-4.5-12.8999996l0,0
		c0-6.1000004,2.3000031-11.1999989,6.5000076-14.6999989l0,0c4.1999969-3.5,10.1000061-5.5,17.3999939-5.5l0,0
		c10.1999969,0,17.1000061,2.5,23.1000061,8.1999998l0,0"/>
	<path class="st0" d="M167.8000031,14.1500072c-5.3000031-5.0999994-11.5-7.3000002-20.8999939-7.3000002l0,0
		c-12.6000061,0-20.7000046,6.6999998-20.7000046,17l0,0c0,4.7000008,1.1999969,8.2000008,3.6000137,10.5999985l0,0
		c2.3999939,2.2999992,6.1000061,3.7999992,11.5,4.5999985l0,0l9.6999969,1.2999992
		c5.1999969,0.7999992,8.3000031,2.0999985,11.1000061,4.7000008l0,0c3.1999969,3,4.8000031,7.2000008,4.8000031,12.2000008l0,0
		c0,1.4000015-0.3000031,5.7999992-3.1000061,9.7000008l0,0c-2.8000031,4-8.3000031,7.5999985-18.5,7.5999985l0,0l0,0l0,0
		c-7.8999939,0-14.3999939-1.5999985-19.7000046-5l0,0L125.8000107,69.25
		c5.2000046,3.3000031,11.7000046,4.9000015,19.5000076,4.9000015l0,0c20.3000031,0,21.3000031-14.0999985,21.3000031-17l0,0
		c0-4.9000015-1.6000061-9.0999985-4.6999969-12l0,0c-2.8000031-2.5999985-5.6999969-3.7999992-10.8999939-4.5999985l0,0
		l-9.6999969-1.2999992c-5.3999939-0.7999992-9.1999969-2.2999992-11.6000061-4.7000008l0,0
		c-2.5000076-2.5-3.7000046-6-3.7000046-10.7999992l0,0c0-10.499999,8.3000107-17.2999992,21.0000076-17.2999992l0,0
		c9.3999939,0,15.6999969,2.1999998,21.1000061,7.3999996l0,0l0,0"/>
	<path class="st0" d="M165.8000031,16.2500057c-4.6999969-4.499999-10.3000031-6.499999-18.8999939-6.499999l0,0
		c-10.8000031,0-17.8000031,5.6000004-17.8000031,14.1999979l0,0c0,3.8999996,0.8999939,6.7000008,2.8000031,8.5999985l0,0
		c1.8999939,1.7999992,5.1000061,3.0999985,9.8999939,3.7999992l0,0l9.6000061,1.2999992
		c5.8999939,0.9000015,9.3000031,2.4000015,12.6999969,5.4000015l0,0c3.8000031,3.5,5.8000031,8.5,5.8000031,14.2999992l0,0
		c0,1.7000008-0.3000031,6.7000008-3.5,11.2999992l0,0c-3.1999969,4.5999985-9.3999939,8.8000031-21,8.8000031l0,0l0,0l0,0
		c-6.5,0-12.1000061-1-17-3.1999969l0,0L128.5,73.9500046c4.8000031,2.0999985,10.4000092,3.0999985,16.9000092,3.0999985l0,0
		c23.1000061,0,24.1999969-16.5,24.1999969-19.9000015l0,0c0-5.7000008-2-10.5999985-5.6999969-14.0999985l0,0
		c-3.3000031-3-6.6000061-4.5-12.5-5.4000015l0,0l-9.6000061-1.2999992c-4.8000031-0.7000008-8.1000061-2-10-3.9000015l0,0
		c-1.8999939-1.8999996-2.8999939-4.7999992-2.8999939-8.7999992l0,0c0-8.7999992,7.1000061-14.3999987,18.1000061-14.499999l0,0
		c8.6000061,0,14.3000031,2,19.1000061,6.6000004l0,0"/>
	<path class="st0" d="M163.8000031,18.3500061c-4.1000061-3.999999-9.1000061-5.6999989-16.8999939-5.6999989l0,0
		c-9.1000061,0-14.8999939,4.3999996-14.8999939,11.2999992l0,0c0,3.1000004,0.6000061,5.3000011,1.8999939,6.5l0,0
		c0.8999939,0.8999996,3.1999969,2.1999989,8.1999969,2.9999981l0,0l9.6000061,1.2999992
		c6.5,1,10.3999939,2.7000008,14.1999969,6.2000008l0,0c4.3999939,4.0999985,6.6999969,9.7999992,6.6999969,16.4000015l0,0
		c0,1.9000015-0.3000031,7.6999969-3.8999939,13l0,0c-3.6000061,5.3000031-10.5,10.0999985-23.3999939,10.0999985l0,0l0,0l0,0
		c-5.5,0-10.5-0.6999969-14.8999939-2.1999969l0,0l0.1000061-0.3000031
		c4.3999939,1.4000015,9.3000031,2.0999985,14.8000031,2.0999985l0,0c25.8000031,0,27-18.9000015,27.1000061-22.7000008l0,0
		c0-6.5999985-2.3000031-12.1000023-6.6000061-16.2000008l0,0c-3.8000031-3.5-7.5-5.0999985-14.1000061-6.0999985l0,0
		l-9.6000061-1.2999992c-5.1000061-0.7999992-7.3999939-2.1000004-8.3999939-3.1000004l0,0
		c-1.3999939-1.3999996-2-3.6000004-2-6.6999989l0,0c0-7,6-11.5999994,15.1999969-11.5999994l0,0
		c7.8000031,0,12.8999939,1.6999998,17.1000061,5.8000002"/>
	<g>
		<path class="st3" d="M179.7671356,71.9716797h0.0319977c0.3806152-1.4752884,1.5387726-2.4748535,3.2681427-2.4748535
			c2.2370758,0,3.474472,1.9991837,3.474472,4.2834625c0,2.4591599-1.3166962,4.2520142-3.474472,4.2520142
			c-1.6658173,0-2.8397369-1.0473633-3.2681427-2.4748611h-0.0319977v2.2842789h-0.3171234V66.5142517h0.3171234V71.9716797z
			 M183.067276,77.7146835c2.1099854,0,3.1568604-1.8401642,3.1568604-3.9343948
			c0-1.8879013-0.9355469-3.9663849-3.1568604-3.9663849c-1.9828949,0-3.3001404,1.4280319-3.3001404,3.9663849
			C179.7671356,75.890274,180.9730377,77.7146835,183.067276,77.7146835z"/>
		<path class="st3" d="M202.9276428,69.6874008h0.3333588l-3.7600555,9.8201904
			c-0.4284058,1.0946198-1.1902008,1.1424103-2.1577759,1.1424103v-0.3176727c1.0789185,0,1.5230255-0.0634918,1.903656-1.0468216
			l0.5869598-1.5230255l-3.4109344-8.0750809h0.3491211l3.2366333,7.7259598L202.9276428,69.6874008z"/>
		<path class="st3" d="M237.0171814,73.3996658c-0.3806152,2.7447357-2.1257324,4.7119293-4.9817505,4.7119293
			c-3.0140839,0-5.1245422-2.4590988-5.1245422-5.8385849c0-2.7446823,1.475769-6.0285797,5.3308716-6.0285797
			c2.9982605,0,4.4740448,2.2685242,4.5213013,3.6650009h-0.3170776c-0.1270447-1.6343155-1.7451172-3.3479233-4.2042236-3.3479233
			c-3.7280731,0-5.0132599,3.363678-5.0132599,5.7115021c0,2.8717728,1.7451172,5.5209732,4.8069305,5.5209732
			c2.7132263,0,4.3312531-1.8879547,4.6641388-4.3943176H237.0171814z"/>
		<path class="st3" d="M247.7550659,66.5142517h0.3171234v11.3274689h-0.3171234V66.5142517z"/>
		<path class="st3" d="M259.6201477,71.781105h6.0286255v0.3176117h-6.0286255v5.7430038h-0.3170776V66.5142517h6.9804382v0.317131
			h-6.6633606V71.781105z"/>
		<path class="st3" d="M276.7672729,77.8417206h-0.3170776V66.5142517h4.6326294
			c2.3478394,0,3.4109497,0.9360809,3.4581909,2.9032745c0.0477905,1.5072784-0.8405457,2.5541534-2.427124,2.9190292v0.0320435
			c1.9194641,0.2535324,2.2370911,1.3166962,2.2370911,3.1410446c0,0.6505051,0.0634766,2.0465012,0.2693176,2.332077h-0.3486328
			c-0.2063293-0.4598618-0.2383118-1.6658173-0.2383118-2.3798065c0-1.8559189-0.3963623-2.9347763-2.9983215-2.9347763h-4.2677612
			V77.8417206z M276.7672729,72.2095184h4.2362671c1.6815491,0,3.2203979-0.8405457,3.2203979-2.824028
			c-0.0157471-1.6022797-0.9040833-2.5541077-3.0618591-2.5541077h-4.3948059V72.2095184z"/>
		<path class="st3" d="M296.4848328,74.1137085l-1.5072632,3.7280121h-0.3648682l4.6011353-11.3274689h0.4125977
			l4.4735718,11.3274689h-0.3491211l-1.4909973-3.7280121H296.4848328z M302.132843,73.7960434l-2.696991-6.9646606h-0.0319824
			l-2.7919922,6.9646606H302.132843z"/>
	</g>
	<g>
		<g>
			<path class="st4" d="M176.8241882,0.8450302V0.5999594h6.541153v0.2450708h-3.1480713v8.501112h-0.2450104v-8.501112H176.8241882
				z"/>
			<polygon class="st4" points="180.4671936,9.5960922 179.7220764,9.5960922 179.7220764,1.0951157 176.5746155,1.0951157 
				176.5746155,0.3499985 183.6156311,0.3499985 183.6156311,1.0951157 180.4671936,1.0951157 			"/>
		</g>
		<g>
			<path class="st4" d="M192.2568665,0.5999594h0.4041595v8.7461824h-0.2450714V0.9062979h-0.0243835l-3.7113647,8.4398441
				h-0.2694702l-3.7118988-8.4398441h-0.0243988v8.4398441h-0.2450714V0.5999594h0.4042206l3.6991425,8.4276772h0.0249329
				L192.2568665,0.5999594z"/>
			<polygon class="st4" points="192.910553,9.5960922 192.1664124,9.5960922 192.1664124,2.0399399 188.8431702,9.5960922 
				188.247467,9.5960922 184.9242249,2.0399399 184.9242249,9.5960922 184.1791077,9.5960922 184.1791077,0.3499985 
				184.9964905,0.3499985 188.5453186,8.4344711 192.0941467,0.3499985 192.910553,0.3499985 			"/>
		</g>
	</g>
</g>
</svg>
